<svg version="1.2" xmlns="http://www.w3.org/2000/svg" viewBox="0 0 274 262" width="274" height="262">
	<style>
		.s0 { fill: #231f20 } 
		.s1 { fill: #7ec24f } 
	</style>
	<g id="Capa 1">
		<g id="&lt;Group&gt;">
			<path id="&lt;Path&gt;" class="s0" d="m89.89 163.17c-0.75-0.29-1.6 0.09-1.89 0.84-0.26 0.67 0.02 1.43 0.63 1.78 0.57 0.9 1 5.09 0.69 8.79-0.06 0.81 0.53 1.51 1.34 1.58q0.06 0.01 0.12 0.01c0.75 0 1.39-0.58 1.45-1.34 0.04-0.43 0.84-10.44-2.34-11.66z"/>
			<path id="&lt;Path&gt;" class="s0" d="m222.61 195.53l-12.37 22.36 5.31 9.61 7.06-12.76 8.06 14.59h-27.87l-6.22-11.24 7.33-13.26h7.62l5.15-9.3h-18.25l-9.35 16.9h-11.26v-7.6h6.71l5.14-9.3h-21.14v26.28l9.29 16.82v-16.9h10.14l9.35 16.9h49.13z"/>
			<path id="&lt;Compound Path&gt;" fill-rule="evenodd" class="s0" d="m270.94 49.31c-0.38 0.94-19.17 20.67-23.49 27.24-4.33 6.58-13.35 13.91-34.95 15.22-4.14-0.37-10.34 6.77-24.81 2.64-4.69 5.07-18.78 6.01-22.73 4.5-1.7 0.38 0.18 4.51 0.75 5.64 3.54 5.84 5.45 14.85 5.26 17.1 0 0 12.59 14.47 11.09 28-0.41 3.15-3.03 3.25-5.56 3.62-3.39 0.94-4.78 2.58-1.21 2.76l4.78 0.06c0 0 1.23 2.95 0.11 5.02-1.13 2.07-4.98 4.03-1.42 6.76 3.28 2.53 0.56 5.83-2.44 6.02-3.01 0.19-0.04 4.11 1.28 4.86 1.31 0.75-0.23 6.89-0.23 6.89-2.72 5.85-47.2 14.3-58.63 3.93 5.44 12.53 11.08 25.74 16.94 39.72 4.22 11.34 11.95 16.38 16.1 16.38 1.58 0 2.02-0.7 2.18-0.97 1.02-1.61 0.96-5.72-2.26-12.41l-2.58-5.36 5.95 0.13c7.74 0.17 12.68 5.34 12.6 13.18-0.11 10.19-8.66 21.54-20.73 21.54-5.72 0-14.63-2.63-24.61-15.18-4.18-5.06-11.78-22.37-23.14-50.05-5.41 1.8-10.98 3.48-15.32 4.36-8.13 3.53-15.85 7.26-16.9-1.99l0.69-26.16c-8.09-0.38-30.67 12.22-32.36 13.72 0 0 2.82-13.16 5.08-12.97-0.57-1.5-10.53 3.19-13.34 6.39-3.76-8.83 7.51-20.1 7.51-20.1-7.14 3.56-22.55 5.07-22.55 5.07l9.21-14.47c0 0-9.96 2.44-11.46 2.07-1.51-0.38 11.27-15.97 11.27-15.97l-20.56-0.81c0 0 38.81-25.5 47.47-35.36 1.68-1.91 4.48-4.11 9.31-5.64-17.51-40.23-34.99-73-39.77-78.51-3.58-4.64-4.87-10-3.3-13.2 0.85-1.72 2.46-2.75 4.32-2.75 2.89 0 5.68 2.47 8.78 7.76 0.2 0.33 21.79 36.36 46.45 84.85 8.63 0.22 19.96 1.83 34.96 5.76 0 0-0.65-2.41-1.78-5.98q-0.08-0.16-0.15-0.32c-0.03-0.08-0.01-0.18-0.03-0.27-0.42-1.28-0.9-2.72-1.43-4.23-0.06-0.14-0.18-0.24-0.23-0.39-0.05-0.15-0.03-0.31-0.06-0.46-2.92-8.22-7.35-18.55-12.39-23.17-2.06-1.69-7.7-6.96 22.74-14.1 9.56-2.06 25.67-5.62 33.76-5.45-0.17 4.53 0.24 12.59 1.07 20.66 0.53 0.4 1 0.92 1.21 1.6 0.26 0.86 0.18 1.77-0.23 2.56q-0.23 0.43-0.57 0.77 0.06 0.58 0.11 1.14 0.45 0.49 0.68 1.14c0.23 0.71 0.21 1.44 0 2.1 1.24 0.18 2.29 1.04 2.71 2.25 0.3 0.92 0.19 1.87-0.24 2.66q0.56 0.22 1.01 0.64c1.36 1.25 1.45 3.38 0.2 4.74q-0.56 0.6-1.21 1.06c1.05 2.12 2.34 1.02 3.59-1.45 1.01-0.21 1.87-0.6 2.07-1.35 1.5-6.76 4.69-9.77 6.95-10.71 2.25-0.94 1.5-7.14-1.32-8.83-2.81-1.69 2.07-5.82 6.02-3.19 4.7-25.93 24.42-35.89 33.44-39.46 9.02-3.57 13.16-5.08 14.47-6.77l0.75 6.96 19.55-6.96-3.2 12.4 25.37-8.64-9.77 16.72c0 0 11.27-2.82 15.78-2.44 0 0-7.89 14.47-10.89 16.44 0 0 3.11 1.28 9.2-1.59 0 0 4.14-1.7 6.76-0.57 2.63 1.13-1.31 2.25-1.68 3.2zm-141.92 109.82c-0.46-0.19-6.39 0.05-12.79 0.44-0.14-6.07-2.02-13.07-3.51-15.03-2.13-2.79 2.06-4.18 2.06-1.74 0 2.44 3.43 4.44 4.1 0 0.61-3.98 0.44-9.82-6.89-6.78-1.73 0.72-1.94 5.41-1.83 6.78 0.33 4.29 0.52 11.57 0.45 17.15-1.57 0.12-3.07 0.24-4.44 0.37-0.33-1.02-0.78-1.89-1.39-2.46 0.39-9.97-1.81-9.19-2.36-8.15-0.28 0.53-1.61 2.27-3.5 4.22q-0.29-0.65-0.58-1.3c7.2-7.53 6.09-13.73 0.94-8.67q-1.64 1.6-3.43 3.23-1.42-3.07-2.84-6.11c1.46-1.96 3.45-4.18 3.2-6.87-2.35-0.56-3.78 1.26-5.15 2.65q-0.67-1.44-1.34-2.88c0.08-0.18 0.19-0.37 0.24-0.55 0.54-2.21-1.12-4.57-3.18-5.66-0.84-1.78-1.68-3.59-2.53-5.34 0.95-0.7 1.61-1.21 1.88-1.44 2.69-2.38 2.69-3.33 1.26-4.28-1-0.67-4.79-1.34-6.81-1.88q-0.33-0.69-0.67-1.37c0.81-1 2.23-2.7 4-4.35 2.38-2.22-4.28-3.96-6.18-4.44-0.69-0.17-1.85-0.79-2.9-1.51-0.46-0.91-0.92-1.86-1.37-2.77 3.01 0 4.27-3.32 1.58-3.48-0.99-0.13-2.12-0.09-3.33 0.05q-1.05-2.08-2.09-4.13c-24.51-48.06-45.5-83-45.5-83-7.03-12.01-9.46-3.29-3.89 3.96 5.22 6.02 22.99 39.47 40.59 79.97q1.18 2.72 2.37 5.49 0 0 0 0.01c-7.9 2.99-16.13 7.97-18.15 10.3-4.6 5.86-17.84 14.76-31.62 22.99h10.78c10.96-15.75 34.83-27.71 41.3-27.85q0.04 0.08 0.07 0.16c-21.77 8.93-36.47 26.62-36.78 33.07 14.48-15 29.34-23.73 39.1-27.57q1.51 3.6 3.02 7.23l-0.3 0.39c0 0 0.19 0 0.47 0.01q0.97 2.32 1.93 4.65c-11.71 7.82-37.99 24.28-38.36 27.02 6.52 0.99 27.69-12.2 40.81-21.08q0.89 2.16 1.77 4.33c-5.24 4.28-11.18 8-17.14 11-9.31 4.68-18.39 9.06-30.35 10.16 4.82-14.42 20.09-19.24 29.09-29.4 1.28-1.44 2.99-3.2 2.66-5.47 0-0.26-0.43-0.09-0.47-0.32q-0.47 0-0.93 0c-3.74 1.02-7.68 4.24-10.64 7.2-8.87 8.86-20.77 13.97-30.66 21.58 3.16-0.57 6.42-2.62 10.01-1.72-0.34 2.88-2.46 5.02-3.91 7.35q-2.2 3.54-4.06 7.35c4.42-1.16 9.93-3.49 15.95-4.22 1.77-0.21 4.86-0.46 5.16 1.09 0.43 2.19-3.84 3.44-2.97 6.89q0.63 0 1.25 0c18.98-0.27 33.65-5.14 44.17-13.97 0.61 1.52 1.24 3.07 1.86 4.58-5.83 4.13-11.89 7.22-17.07 7.48-22.97 1.74-34.22 6.02-36.59 8.87 16.85-5.62 13.41 3.52 13.31 3.8 0.52-1.28 16.49-6.97 25.97-8.71 6.67-1.64 12.09-3.86 16.46-6.3q0.79 1.95 1.57 3.88c0.02 2.71 1.4 5.84 3.29 8.12q0.85 2.08 1.68 4.14c-0.48 13.86-0.93 15.88-2.9 15.74 0.13-3.13 2.07-12.83 0-15.8-2.07-2.97-4.52-8.8-3.75-12.42-13.84 3.1-18.24 10.09-18.5 15.27 0 0-0.26 7.89 0 14.61 0.26 6.73 2.46 10.87 7.89 7.25 4.17-2.78 17.31-5.78 24.2-7.61 0.27 0.68 0.56 1.39 0.83 2.05 10.31 25.11 18.53 44.09 22.55 48.94 32.26 38.58 52.05-13.13 29.8-13.62 12.16 25.3-13.62 24.32-22.68 0-5.5-13.13-11.21-26.54-17.03-39.94q-0.3-0.67-0.59-1.34c1.18-0.39 2.16-0.81 2.64-1.29 2.03-4.45-5.62-9.91-9.24-13.73q-0.82-1.87-1.64-3.73c0.27-1.2 0.44-2.83 0.46-4.54 0.84-0.31 2.06-0.6 3.52-0.86-0.11 1.33-0.24 2.2-0.42 2.35-6.39 4.36 0.2 10.31 6.16 7.55 5.96-2.77 0.47-8.84-0.92-8.72q0.37-0.89 0.58-1.96c6.3-0.75 13.19-1.17 13.19-1.17zm-83.13 16.04q0 0 0.01-0.01 0 0.01-0.01 0.01zm72.26-61.49l-0.38 1.41q0.28 0.07 0.56 0.04c0.26 0.69 0.92 1.19 1.7 1.19 1.01 0 1.83-0.81 1.83-1.82 0-1.01-0.82-1.83-1.83-1.83q-0.39 0.01-0.73 0.15c-0.18-0.25-0.43-0.46-0.76-0.55-1.08-0.3-2.15 0.02-2.99 0.9-2.29 2.36-2.98 9.38-2.81 13.05-0.26 0.44-0.46 0.93-0.46 1.49 0 1.63 1.33 2.96 2.97 2.96 1.63 0 2.95-1.33 2.95-2.96 0-1.5-1.13-2.7-2.59-2.89 0.08-3.54 0.97-9.25 2.14-9.74zm7.89-10.1c0-3.57-3.1-6.46-6.93-6.46-3.83 0-6.94 2.89-6.94 6.46 0 3.58 3.11 6.48 6.94 6.48 3.83 0 6.93-2.9 6.93-6.48zm-0.21 5.38c-0.41 0.45-0.38 1.14 0.06 1.55q0.34 0.29 0.75 0.29c0.29 0 0.59-0.12 0.8-0.35l2.38-2.57c0.41-0.44 0.38-1.13-0.06-1.55-0.44-0.4-1.14-0.38-1.55 0.06zm-5.51 12.62q0.29 0.19 0.61 0.18c0.35 0 0.7-0.16 0.91-0.48 0.03-0.05 2.91-4.29 8.21-5.72 0.53-0.14 0.84-0.64 0.79-1.17l7.77-2.68-4.57-2-2.66-0.95-0.76 5.06c-0.26-0.33-0.71-0.49-1.14-0.37-6.12 1.65-9.33 6.42-9.47 6.62-0.33 0.5-0.19 1.18 0.31 1.51zm18.29-12.82c3.45-0.39-5.22-3.49-3.26-5.91 1.96-2.41-4.11-12.72-5.88-9.85-1.65 5.39-2.02 15.96 9.14 15.76zm-5.53-16.51l1.83 2.98c0.21 0.33 0.56 0.51 0.94 0.51q0.29 0 0.57-0.15c0.51-0.32 0.67-1 0.36-1.51l-1.83-2.98c-0.32-0.51-0.98-0.68-1.5-0.36-0.52 0.32-0.68 0.99-0.37 1.51zm12.71 12.32c6.71-8.36-1.56-14.29-6.61-16.2-3.23-0.33 1.04 10.33 4.04 10.26 2.99-0.07 0.25 8.34 2.57 5.94zm-5.74 2q0.16 0 0.32-0.05 1.68-0.52 2.06-1.7c0.4-1.29-0.57-2.52-1.42-3.61-0.36-0.45-0.95-1.22-1.04-1.33 0 0 0.15-0.14 0.75-0.28 0.59-0.13 0.96-0.72 0.83-1.31-0.13-0.58-0.72-0.95-1.31-0.82-0.46 0.1-1.86 0.41-2.29 1.6-0.44 1.23 0.47 2.38 1.34 3.5 0.36 0.46 1.04 1.32 1.06 1.56 0 0-0.11 0.14-0.63 0.3-0.57 0.18-0.9 0.8-0.71 1.37 0.14 0.47 0.57 0.77 1.04 0.77zm7.65-17.79c0 0.82 0.71 1.48 1.59 1.48 0.87 0 1.59-0.66 1.59-1.48 0-0.81-0.72-1.47-1.59-1.47-0.88 0-1.59 0.66-1.59 1.47zm-21.38-17.78c-0.59-1.75 3.98-3.21 5.23-1.66l15.19-4.83c0.56-0.17 1.12-0.06 1.57 0.22v-6.24l-2.19 3.65-2.19-9.97-1.46 8.76-2.19-5.11-0.97 6.32-4.38-7.78v9.97l-4.38-12.16 0.02 15.25-6.1-15.25v12.89l-5.35-9.73v9.24l-2.68-5.84v10.22l-6.32-10.22 2.67 12.9-7.78-10.95 4.14 12.65-5.85-7.78 2.44 9-4.87-4.63 3.41 9.25 0.16-0.04c0.09-0.72 0.57-1.36 1.3-1.59 0 0 20.31-6.28 20.58-6.54zm-35.52 28.65c0.63 3.41 13.1 23.94 17.96 28.07 0.24-2.19-9.84-27.21-17.96-28.07zm14.48 56.28c-0.06 0.8 0.53 1.51 1.34 1.57q0.06 0.01 0.12 0.01c0.75 0 1.39-0.58 1.45-1.33 0.04-0.43 0.84-10.44-2.34-11.67-0.75-0.28-1.6 0.09-1.89 0.84-0.26 0.68 0.02 1.43 0.63 1.79 0.57 0.89 1.01 5.09 0.69 8.79zm37.14-45.61c4.25 0.49 12.14-2.26 12.89-3.49 0.75-1.24-2.88-1.31-2.88-1.31l-0.89-3.63 5.42 0.62-4.87-3.98zm5.46 10.55l0.16-1.43c-16.77-3.86-26.43 18.69-21.6 24 1.21-1.33 4.95-2.29 4.58-1.2-0.36 1.09 3.38 15.57 5.07 21.48 1.7 5.92-1.33 5.68-2.41 6.16-1.09 0.48-3.87 1.93-1.57 6.28 2.29 4.34 7.24 14 7.24 14l7.49-0.72c0 0 6.51-16.42 9.06-20.89 1.4-2.49 4.34-3.01 4.34-3.01h12.09l-0.36-3.62c-2.26 0.79-8.96 0.6-12.22-0.01-3.25-0.6-2.88-1.55-5.07-4.58-2.24-3.13-6.58-13.1-8.69-17.15 1.33-2.41 25.59-5.79 26.68-7.72 1.09-1.93-6.56-11.35-7.65-12.08-1.08-0.72-17.14 0.49-17.14 0.49zm12.19-15.87c-0.07 0.08-0.37 0.1-0.58 0.05-0.78-0.17-1.56 0.3-1.75 1.07-0.19 0.78 0.28 1.57 1.06 1.77 0.09 0.02 0.44 0.11 0.93 0.11 0.7 0 1.64-0.17 2.41-0.94q1.54-1.54 0.69-4.94c-0.19-0.78-0.99-1.24-1.77-1.06-0.78 0.2-1.25 0.99-1.06 1.78 0.37 1.45 0.17 2.05 0.07 2.16zm4.51-11.69c0-3.59-2.69-6.49-6-6.49-3.31 0-6 2.9-6 6.49 0 3.59 2.69 6.49 6 6.49 3.31 0 6-2.9 6-6.49zm21.12-36.32c-1.68 5.6 2.81 4.86 4.68 1.47 9.71-20.38 26.9-23.52 32.13-27.62 7.47-2.99 5.98-9.9 2.05-7.85-25.4 12.33-33.43 22.98-38.86 34zm-5.22-0.94c12.33-22.6 30.82-32.5 34-33.25 3.17-0.74 1.87-3.17-1.12-2.61-19.06 8.03-29.15 18.86-35.69 35.86-1.67 4.05 1.87 2.25 2.81 0zm20.71 27.92c-1.63-1.35-2.89-5.14-1.18-9.47-5.13-0.72-5.85-3.34-6.15-7.31-0.85 0.62-2.09 0.55-3.35 0.06q-1.43-1.15-2.99-2.01c-1.12-1.15-1.94-2.6-2-4.09-1.25 1.78-7.5 0.92-8.83-1.42-0.26 1.62-3.62 2.07-6.68 2.84l0.55 0.04c-0.7 0.2-1.18 0.87-1.06 1.61 0.13 0.8 4.05 4.05 5.1 4.08 7.39 0.17 13.07 2.61 16.01 6.85 2.4 3.47 2.76 7.93 1.04 12.88-0.35 0.99 0.33 1.79 1.16 2.41 0.13 0.6 5.56 0.16 5.55-1.43 0.36-1.64 1.21-3.65 2.83-5.04zm0.58-14.84c8.03-5.23 15.13-12.89 18.68-14.38 3.55-1.5 19.81-13.83 21.86-15.47 6.36-2.2 9.34-8.44 9.34-12.37 0 0-2.43 4.49-14.38 8.41-11.96 3.92-27.47 16.81-41.29 29.52-1.94 1.78-2.24 9.52 5.79 4.29zm53.43-22.79c2.24-3.55 6.17-6.72 5.04-8.78-3.54 0.38-14.57 2.43-17.55 5.79-4.49 3.74-20.33 16.5-27.47 22.42-4.6 3.82-2.43 5.04 1.1 3.74 9.68-2.81 26.37-19.25 28.42-21.68 2.05-2.42 7.1-5.04 10.46-5.97-19.24 23.16-45.21 35.12-49.69 37.36-5.79 2.8-4.3 4.48 1.87 4.11 13.63-1.68 45.58-33.44 47.82-36.99zm-2.43 10.84c-4.3 6.16-23.16 22.97-38.86 30.26 17.24 1.68 42.04-24.47 44.47-28.98 2.43-4.51-2.43-3.9-5.61-1.28z"/>
			<path id="&lt;Path&gt;" class="s0" d="m72.6 149.22c-7.19 5.03-14.09 9-24.25 8.61 0.47-1.62 1.1-3.08 1.72-4.54-1.86 1.05-4.16 3.03-5.78 4.85 4.19 5.66 14.92 1.47 20.02-1.1 6.6-3.31 12.39-7.59 17.82-12.17q-0.47-1.13-0.93-2.28c-2.82 2.36-5.72 4.62-8.6 6.63z"/>
			<path id="&lt;Path&gt;" class="s0" d="m76.87 172.94c0 0-2.27 6.49-2.06 7.11 0.22 0.61 3.66 7.41 4.12 11.59 2.63-0.77 0.62-8.35-0.77-10.66-1.39-2.32-1.29-8.04-1.29-8.04z"/>
			<path id="&lt;Path&gt;" class="s0" d="m71.97 175.7c-1.08 6.95-0.6 25.57 1.86 23.21 2.22-2.14 0-14.69 0-14.69 0 0-0.77-15.45-1.86-8.52z"/>
			<path id="&lt;Path&gt;" class="s0" d="m96.71 191.64h2.16v-5.49q-0.76-1.88-1.53-3.78z"/>
			<path id="&lt;Path&gt;" class="s0" d="m83.53 169.69c-1.11 1.55-0.43 8.97-0.58 11.9-0.05 0.83 2.01 4.48 0.77 10.05l2.1 0.93c0 0 0.84-5.73 2.54-6.06 0 0 0.93-8.94 0-13.57-0.93-4.65-3.71-4.8-4.83-3.25z"/>
			<path id="&lt;Path&gt;" class="s0" d="m113.33 186.33c1.17-1.64-2.4-7.06-2.4-7.06 0 0 0 0.78 0.12 1.86q1.14 2.59 2.28 5.2z"/>
			<path id="&lt;Compound Path&gt;" fill-rule="evenodd" class="s0" d="m152.96 126.69c0 3.65-12.53 10.95-7.42 5.84 6.5-6.5 5.41-4.85-0.56-3.76-0.6 1.62-2.65 3.49-5.45 4.78-3.86 1.78-7.65 1.78-8.48 0.01-0.6-1.31 0.57-3.2 2.75-4.82-3.24-1.55 4.8-5.54 11.74-6.43 2.45-0.32 1.77 1.32 0.37 1.58-7.06 0.85-7.27 1.79-2.91 1.34 3.52-0.37 9.96-2.19 9.96 1.46zm-16.23 4.78c0-0.76-0.4-0.86-1.15-0.86-0.76 0-1.05-0.07-1.05 0.69 0 0.75 0.87 0.82 1.63 0.82 0.75 0 0.57 0.11 0.57-0.65z"/>
		</g>
		<path id="&lt;Path&gt;" class="s1" d="m663.91 35.91c-0.34 0.51-2.73 0.51-3.06 0q1.53 0 3.06 0z"/>
		<path id="&lt;Path&gt;" class="s1" d="m695.02 28.29q1.64-2.02 3.66-3.66-1.64 2.02-3.66 3.66z"/>
		<path id="&lt;Path&gt;" class="s1" d="m660.55 38.66q1.98 0 3.96 0c-0.62 0.5-3.33 0.5-3.96 0z"/>
	</g>
</svg>